<mxfile host="app.diagrams.net" modified="2024-05-07T06:34:37.763Z" agent="Mozilla/5.0 (Windows NT 10.0; Win64; x64) AppleWebKit/537.36 (KHTML, like Gecko) Chrome/124.0.0.0 Safari/537.36 Edg/124.0.0.0" etag="-WQzUTNO8bO10cPWI0ej" version="24.3.1" type="github">
  <diagram name="Page-1" id="10a91c8b-09ff-31b1-d368-03940ed4cc9e">
    <mxGraphModel dx="2365" dy="1372" grid="1" gridSize="10" guides="1" tooltips="1" connect="1" arrows="1" fold="1" page="1" pageScale="1" pageWidth="4681" pageHeight="3300" background="none" math="0" shadow="0">
      <root>
        <mxCell id="0" />
        <mxCell id="1" parent="0" />
        <mxCell id="zLDwhN8EWrta-eR58-o--51" value="" style="group" vertex="1" connectable="0" parent="1">
          <mxGeometry x="460" y="390" width="920" height="411" as="geometry" />
        </mxCell>
        <mxCell id="zLDwhN8EWrta-eR58-o--3" value="&lt;div style=&quot;color: rgb(204, 204, 204); background-color: rgb(31, 31, 31); font-family: Consolas, &amp;quot;Courier New&amp;quot;, monospace; font-size: 14px; line-height: 19px; white-space: pre;&quot;&gt;&lt;span style=&quot;color: #569cd6;&quot;&gt;unsigned&lt;/span&gt; &lt;span style=&quot;color: #569cd6;&quot;&gt;int&lt;/span&gt; &lt;span style=&quot;color: #4ec9b0;&quot;&gt;TopicPage&lt;/span&gt;::&lt;span style=&quot;color: #dcdcaa;&quot;&gt;addDuration&lt;/span&gt;(&lt;span style=&quot;color: #4ec9b0;&quot;&gt;ItemUI&lt;/span&gt;&lt;span style=&quot;color: #569cd6;&quot;&gt;*&lt;/span&gt; &lt;span style=&quot;color: #9cdcfe;&quot;&gt;item&lt;/span&gt;,&lt;/div&gt;&lt;div style=&quot;color: rgb(204, 204, 204); background-color: rgb(31, 31, 31); font-family: Consolas, &amp;quot;Courier New&amp;quot;, monospace; font-size: 14px; line-height: 19px; white-space: pre;&quot;&gt; &lt;span style=&quot;color: #4ec9b0;&quot;&gt;ContentItem&lt;/span&gt;&lt;span style=&quot;color: #569cd6;&quot;&gt;*&lt;/span&gt; &lt;span style=&quot;color: #9cdcfe;&quot;&gt;contentItem&lt;/span&gt;,&lt;/div&gt;&lt;div style=&quot;color: rgb(204, 204, 204); background-color: rgb(31, 31, 31); font-family: Consolas, &amp;quot;Courier New&amp;quot;, monospace; font-size: 14px; line-height: 19px; white-space: pre;&quot;&gt; &lt;span style=&quot;color: #569cd6;&quot;&gt;const&lt;/span&gt; &lt;span style=&quot;color: #569cd6;&quot;&gt;int&amp;amp;&lt;/span&gt; &lt;span style=&quot;color: #9cdcfe;&quot;&gt;width&lt;/span&gt;, &lt;span style=&quot;color: #569cd6;&quot;&gt;const&lt;/span&gt; &lt;span style=&quot;color: #569cd6;&quot;&gt;int&amp;amp;&lt;/span&gt; &lt;span style=&quot;color: #9cdcfe;&quot;&gt;height&lt;/span&gt;)&lt;/div&gt;" style="rounded=1;whiteSpace=wrap;html=1;strokeColor=#000000;" vertex="1" parent="zLDwhN8EWrta-eR58-o--51">
          <mxGeometry x="26" y="290" width="440" height="70" as="geometry" />
        </mxCell>
        <mxCell id="zLDwhN8EWrta-eR58-o--9" style="rounded=0;orthogonalLoop=1;jettySize=auto;html=1;exitX=0.5;exitY=1;exitDx=0;exitDy=0;entryX=0.25;entryY=0;entryDx=0;entryDy=0;" edge="1" parent="zLDwhN8EWrta-eR58-o--51" source="zLDwhN8EWrta-eR58-o--4" target="zLDwhN8EWrta-eR58-o--3">
          <mxGeometry relative="1" as="geometry" />
        </mxCell>
        <mxCell id="zLDwhN8EWrta-eR58-o--4" value="&lt;div style=&quot;color: rgb(204, 204, 204); background-color: rgb(31, 31, 31); font-family: Consolas, &amp;quot;Courier New&amp;quot;, monospace; font-size: 14px; line-height: 19px; white-space: pre;&quot;&gt;&lt;div style=&quot;line-height: 19px;&quot;&gt;&lt;div style=&quot;line-height: 19px;&quot;&gt;&lt;span style=&quot;color: #569cd6;&quot;&gt;bool&lt;/span&gt; &lt;span style=&quot;color: #4ec9b0;&quot;&gt;TopicPage&lt;/span&gt;::&lt;span style=&quot;color: #dcdcaa;&quot;&gt;initLayoutUI&lt;/span&gt;()&lt;/div&gt;&lt;/div&gt;&lt;/div&gt;" style="rounded=1;whiteSpace=wrap;html=1;strokeColor=#000000;" vertex="1" parent="zLDwhN8EWrta-eR58-o--51">
          <mxGeometry y="35" width="260" height="60" as="geometry" />
        </mxCell>
        <mxCell id="zLDwhN8EWrta-eR58-o--11" style="rounded=0;orthogonalLoop=1;jettySize=auto;html=1;exitX=0.5;exitY=1;exitDx=0;exitDy=0;entryX=0.75;entryY=0;entryDx=0;entryDy=0;" edge="1" parent="zLDwhN8EWrta-eR58-o--51" source="zLDwhN8EWrta-eR58-o--5" target="zLDwhN8EWrta-eR58-o--3">
          <mxGeometry relative="1" as="geometry">
            <mxPoint x="470" y="235" as="targetPoint" />
          </mxGeometry>
        </mxCell>
        <mxCell id="zLDwhN8EWrta-eR58-o--5" value="&lt;div style=&quot;color: rgb(204, 204, 204); background-color: rgb(31, 31, 31); font-family: Consolas, &amp;quot;Courier New&amp;quot;, monospace; font-size: 14px; line-height: 19px; white-space: pre;&quot;&gt;&lt;div style=&quot;line-height: 19px;&quot;&gt;&lt;div style=&quot;line-height: 19px;&quot;&gt;&lt;div style=&quot;line-height: 19px;&quot;&gt;&lt;span style=&quot;color: #569cd6;&quot;&gt;void&lt;/span&gt; &lt;span style=&quot;color: #4ec9b0;&quot;&gt;TopicPage&lt;/span&gt;::&lt;span style=&quot;color: #dcdcaa;&quot;&gt;OnUpdateLoad&lt;/span&gt;()&lt;/div&gt;&lt;/div&gt;&lt;/div&gt;&lt;/div&gt;" style="rounded=1;whiteSpace=wrap;html=1;strokeColor=#000000;" vertex="1" parent="zLDwhN8EWrta-eR58-o--51">
          <mxGeometry x="670" y="35" width="250" height="60" as="geometry" />
        </mxCell>
        <mxCell id="zLDwhN8EWrta-eR58-o--10" style="rounded=0;orthogonalLoop=1;jettySize=auto;html=1;exitX=0.5;exitY=1;exitDx=0;exitDy=0;entryX=0.5;entryY=0;entryDx=0;entryDy=0;" edge="1" parent="zLDwhN8EWrta-eR58-o--51" source="zLDwhN8EWrta-eR58-o--6" target="zLDwhN8EWrta-eR58-o--3">
          <mxGeometry relative="1" as="geometry">
            <mxPoint x="240" y="260" as="targetPoint" />
          </mxGeometry>
        </mxCell>
        <mxCell id="zLDwhN8EWrta-eR58-o--6" value="&lt;div style=&quot;color: rgb(204, 204, 204); background-color: rgb(31, 31, 31); font-family: Consolas, &amp;quot;Courier New&amp;quot;, monospace; font-size: 14px; line-height: 19px; white-space: pre;&quot;&gt;&lt;div style=&quot;line-height: 19px;&quot;&gt;&lt;div style=&quot;line-height: 19px;&quot;&gt;&lt;div style=&quot;line-height: 19px;&quot;&gt;&lt;span style=&quot;color: #569cd6;&quot;&gt;bool&lt;/span&gt; &lt;span style=&quot;color: #4ec9b0;&quot;&gt;TopicPage&lt;/span&gt;::&lt;span style=&quot;color: #dcdcaa;&quot;&gt;loadNewPage&lt;/span&gt;&lt;/div&gt;&lt;div style=&quot;line-height: 19px;&quot;&gt;(&lt;span style=&quot;color: #569cd6;&quot;&gt;const&lt;/span&gt; &lt;span style=&quot;color: #569cd6;&quot;&gt;int&amp;amp;&lt;/span&gt; &lt;span style=&quot;color: #9cdcfe;&quot;&gt;pageIndex&lt;/span&gt;, &lt;span style=&quot;color: #569cd6;&quot;&gt;const&lt;/span&gt; &lt;span style=&quot;color: #569cd6;&quot;&gt;int&amp;amp;&lt;/span&gt; &lt;span style=&quot;color: #9cdcfe;&quot;&gt;pageNum&lt;/span&gt;)&lt;/div&gt;&lt;/div&gt;&lt;/div&gt;&lt;/div&gt;" style="rounded=1;whiteSpace=wrap;html=1;strokeColor=#000000;" vertex="1" parent="zLDwhN8EWrta-eR58-o--51">
          <mxGeometry x="290" y="30" width="350" height="70" as="geometry" />
        </mxCell>
        <mxCell id="zLDwhN8EWrta-eR58-o--12" value="&lt;div style=&quot;color: rgb(204, 204, 204); background-color: rgb(31, 31, 31); font-family: Consolas, &amp;quot;Courier New&amp;quot;, monospace; font-size: 14px; line-height: 19px; white-space: pre;&quot;&gt;&lt;div style=&quot;line-height: 19px;&quot;&gt;&lt;span style=&quot;color: #569cd6;&quot;&gt;void&lt;/span&gt; &lt;span style=&quot;color: #4ec9b0;&quot;&gt;TopicPage&lt;/span&gt;::&lt;span style=&quot;color: #dcdcaa;&quot;&gt;execTimerDuration&lt;/span&gt;()&lt;/div&gt;&lt;/div&gt;" style="rounded=1;whiteSpace=wrap;html=1;strokeColor=#000000;" vertex="1" parent="zLDwhN8EWrta-eR58-o--51">
          <mxGeometry x="540" y="295" width="300" height="60" as="geometry" />
        </mxCell>
        <mxCell id="zLDwhN8EWrta-eR58-o--14" value="" style="endArrow=classic;html=1;rounded=0;entryX=0.75;entryY=0;entryDx=0;entryDy=0;exitX=0.527;exitY=0.99;exitDx=0;exitDy=0;exitPerimeter=0;" edge="1" parent="zLDwhN8EWrta-eR58-o--51" source="zLDwhN8EWrta-eR58-o--5" target="zLDwhN8EWrta-eR58-o--12">
          <mxGeometry width="50" height="50" relative="1" as="geometry">
            <mxPoint x="640" y="250" as="sourcePoint" />
            <mxPoint x="690" y="200" as="targetPoint" />
          </mxGeometry>
        </mxCell>
        <mxCell id="zLDwhN8EWrta-eR58-o--15" value="" style="endArrow=classic;html=1;rounded=0;entryX=0.5;entryY=0;entryDx=0;entryDy=0;exitX=0.66;exitY=0.992;exitDx=0;exitDy=0;exitPerimeter=0;" edge="1" parent="zLDwhN8EWrta-eR58-o--51" source="zLDwhN8EWrta-eR58-o--6" target="zLDwhN8EWrta-eR58-o--12">
          <mxGeometry width="50" height="50" relative="1" as="geometry">
            <mxPoint x="714" y="87.86000000000001" as="sourcePoint" />
            <mxPoint x="620" y="289.86" as="targetPoint" />
          </mxGeometry>
        </mxCell>
        <mxCell id="zLDwhN8EWrta-eR58-o--16" value="" style="endArrow=classic;html=1;rounded=0;entryX=0.25;entryY=0;entryDx=0;entryDy=0;exitX=0.718;exitY=1.003;exitDx=0;exitDy=0;exitPerimeter=0;" edge="1" parent="zLDwhN8EWrta-eR58-o--51" source="zLDwhN8EWrta-eR58-o--4" target="zLDwhN8EWrta-eR58-o--12">
          <mxGeometry width="50" height="50" relative="1" as="geometry">
            <mxPoint x="624" y="93" as="sourcePoint" />
            <mxPoint x="530" y="295" as="targetPoint" />
          </mxGeometry>
        </mxCell>
        <mxCell id="zLDwhN8EWrta-eR58-o--17" value="" style="endArrow=classic;html=1;rounded=0;exitX=-0.001;exitY=0.641;exitDx=0;exitDy=0;edgeStyle=orthogonalEdgeStyle;curved=1;entryX=0.999;entryY=0.557;entryDx=0;entryDy=0;entryPerimeter=0;exitPerimeter=0;" edge="1" parent="zLDwhN8EWrta-eR58-o--51" source="zLDwhN8EWrta-eR58-o--12" target="zLDwhN8EWrta-eR58-o--12">
          <mxGeometry width="50" height="50" relative="1" as="geometry">
            <mxPoint x="690" y="410" as="sourcePoint" />
            <mxPoint x="870" y="370" as="targetPoint" />
            <Array as="points">
              <mxPoint x="510" y="334" />
              <mxPoint x="510" y="411" />
              <mxPoint x="870" y="411" />
              <mxPoint x="870" y="328" />
            </Array>
          </mxGeometry>
        </mxCell>
        <mxCell id="zLDwhN8EWrta-eR58-o--20" value="OnLoad" style="text;html=1;align=center;verticalAlign=middle;whiteSpace=wrap;rounded=0;fontStyle=1;fontSize=14;fontFamily=Georgia;" vertex="1" parent="zLDwhN8EWrta-eR58-o--51">
          <mxGeometry x="100" y="5" width="60" height="30" as="geometry" />
        </mxCell>
        <mxCell id="zLDwhN8EWrta-eR58-o--21" value="Move focus right or down&amp;nbsp;" style="text;html=1;align=center;verticalAlign=middle;whiteSpace=wrap;rounded=0;fontStyle=1;fontSize=14;fontFamily=Georgia;" vertex="1" parent="zLDwhN8EWrta-eR58-o--51">
          <mxGeometry x="356.25" width="217.5" height="30" as="geometry" />
        </mxCell>
        <mxCell id="zLDwhN8EWrta-eR58-o--22" value="Push event reload page" style="text;html=1;align=center;verticalAlign=middle;whiteSpace=wrap;rounded=0;fontStyle=1;fontSize=14;fontFamily=Georgia;" vertex="1" parent="zLDwhN8EWrta-eR58-o--51">
          <mxGeometry x="701.25" y="5" width="187.5" height="30" as="geometry" />
        </mxCell>
        <mxCell id="zLDwhN8EWrta-eR58-o--52" value="" style="group" vertex="1" connectable="0" parent="1">
          <mxGeometry x="1410" y="390" width="910" height="455" as="geometry" />
        </mxCell>
        <mxCell id="zLDwhN8EWrta-eR58-o--19" value="&lt;div style=&quot;color: rgb(204, 204, 204); background-color: rgb(31, 31, 31); font-family: Consolas, &amp;quot;Courier New&amp;quot;, monospace; font-size: 14px; line-height: 19px; white-space: pre;&quot;&gt;&lt;span style=&quot;color: #569cd6;&quot;&gt;unsigned&lt;/span&gt; &lt;span style=&quot;color: #569cd6;&quot;&gt;int&lt;/span&gt; &lt;span style=&quot;color: #4ec9b0;&quot;&gt;InterfaceBlock&lt;/span&gt;::&lt;span style=&quot;color: #dcdcaa;&quot;&gt;addDuration&lt;/span&gt;(&lt;span style=&quot;color: #4ec9b0;&quot;&gt;ItemUI&lt;/span&gt;&lt;span style=&quot;color: #569cd6;&quot;&gt;*&lt;/span&gt; &lt;span style=&quot;color: #9cdcfe;&quot;&gt;item&lt;/span&gt;,&lt;/div&gt;&lt;div style=&quot;color: rgb(204, 204, 204); background-color: rgb(31, 31, 31); font-family: Consolas, &amp;quot;Courier New&amp;quot;, monospace; font-size: 14px; line-height: 19px; white-space: pre;&quot;&gt; &lt;span style=&quot;color: #4ec9b0;&quot;&gt;ContentItem&lt;/span&gt;&lt;span style=&quot;color: #569cd6;&quot;&gt;*&lt;/span&gt; &lt;span style=&quot;color: #9cdcfe;&quot;&gt;contentItem&lt;/span&gt;,&lt;/div&gt;&lt;div style=&quot;color: rgb(204, 204, 204); background-color: rgb(31, 31, 31); font-family: Consolas, &amp;quot;Courier New&amp;quot;, monospace; font-size: 14px; line-height: 19px; white-space: pre;&quot;&gt; &lt;span style=&quot;color: #569cd6;&quot;&gt;const&lt;/span&gt; &lt;span style=&quot;color: #569cd6;&quot;&gt;int&amp;amp;&lt;/span&gt; &lt;span style=&quot;color: #9cdcfe;&quot;&gt;width&lt;/span&gt;, &lt;span style=&quot;color: #569cd6;&quot;&gt;const&lt;/span&gt; &lt;span style=&quot;color: #569cd6;&quot;&gt;int&amp;amp;&lt;/span&gt; &lt;span style=&quot;color: #9cdcfe;&quot;&gt;height&lt;/span&gt;)&lt;/div&gt;" style="rounded=1;whiteSpace=wrap;html=1;strokeColor=#000000;" vertex="1" parent="zLDwhN8EWrta-eR58-o--52">
          <mxGeometry y="339" width="440" height="70" as="geometry" />
        </mxCell>
        <mxCell id="zLDwhN8EWrta-eR58-o--26" style="rounded=0;orthogonalLoop=1;jettySize=auto;html=1;exitX=0.5;exitY=1;exitDx=0;exitDy=0;entryX=0.5;entryY=0;entryDx=0;entryDy=0;" edge="1" parent="zLDwhN8EWrta-eR58-o--52" source="zLDwhN8EWrta-eR58-o--25" target="zLDwhN8EWrta-eR58-o--19">
          <mxGeometry relative="1" as="geometry" />
        </mxCell>
        <mxCell id="zLDwhN8EWrta-eR58-o--31" style="rounded=0;orthogonalLoop=1;jettySize=auto;html=1;exitX=0.5;exitY=1;exitDx=0;exitDy=0;entryX=0.5;entryY=0;entryDx=0;entryDy=0;" edge="1" parent="zLDwhN8EWrta-eR58-o--52" source="zLDwhN8EWrta-eR58-o--25" target="zLDwhN8EWrta-eR58-o--29">
          <mxGeometry relative="1" as="geometry" />
        </mxCell>
        <mxCell id="zLDwhN8EWrta-eR58-o--25" value="&lt;div style=&quot;background-color: rgb(31, 31, 31); font-family: Consolas, &amp;quot;Courier New&amp;quot;, monospace; font-size: 14px; line-height: 19px; white-space: pre;&quot;&gt;&lt;font color=&quot;#569cd6&quot;&gt;bool&lt;/font&gt;&lt;span style=&quot;color: rgb(204, 204, 204);&quot;&gt; &lt;span style=&quot;color: #4ec9b0;&quot;&gt;&amp;lt;Block&amp;gt;&lt;/span&gt;::&lt;span style=&quot;color: #dcdcaa;&quot;&gt;OnLoad&lt;/span&gt;(&lt;/span&gt;&lt;font color=&quot;#4ec9b0&quot;&gt;...&lt;/font&gt;&lt;span style=&quot;color: rgb(204, 204, 204);&quot;&gt;)&lt;/span&gt;&lt;/div&gt;" style="rounded=1;whiteSpace=wrap;html=1;strokeColor=#000000;" vertex="1" parent="zLDwhN8EWrta-eR58-o--52">
          <mxGeometry x="339" width="220" height="70" as="geometry" />
        </mxCell>
        <mxCell id="zLDwhN8EWrta-eR58-o--27" value="" style="endArrow=classic;html=1;rounded=0;exitX=-0.001;exitY=0.641;exitDx=0;exitDy=0;edgeStyle=orthogonalEdgeStyle;curved=1;entryX=0.999;entryY=0.557;entryDx=0;entryDy=0;entryPerimeter=0;exitPerimeter=0;" edge="1" source="zLDwhN8EWrta-eR58-o--28" target="zLDwhN8EWrta-eR58-o--28" parent="zLDwhN8EWrta-eR58-o--52">
          <mxGeometry width="50" height="50" relative="1" as="geometry">
            <mxPoint x="658.75" y="454" as="sourcePoint" />
            <mxPoint x="838.75" y="414" as="targetPoint" />
            <Array as="points">
              <mxPoint x="479" y="378" />
              <mxPoint x="479" y="455" />
              <mxPoint x="910" y="455" />
              <mxPoint x="910" y="372" />
            </Array>
          </mxGeometry>
        </mxCell>
        <mxCell id="zLDwhN8EWrta-eR58-o--28" value="&lt;div style=&quot;color: rgb(204, 204, 204); background-color: rgb(31, 31, 31); font-family: Consolas, &amp;quot;Courier New&amp;quot;, monospace; font-size: 14px; line-height: 19px; white-space: pre;&quot;&gt;&lt;div style=&quot;line-height: 19px;&quot;&gt;&lt;span style=&quot;color: #569cd6;&quot;&gt;void&lt;/span&gt; &lt;span style=&quot;color: #4ec9b0;&quot;&gt;InterfaceBlock&lt;/span&gt;::&lt;span style=&quot;color: #dcdcaa;&quot;&gt;execTimerDuration&lt;/span&gt;()&lt;/div&gt;&lt;/div&gt;" style="rounded=1;whiteSpace=wrap;html=1;strokeColor=#000000;" vertex="1" parent="zLDwhN8EWrta-eR58-o--52">
          <mxGeometry x="508.75" y="339" width="371.25" height="60" as="geometry" />
        </mxCell>
        <mxCell id="zLDwhN8EWrta-eR58-o--30" style="edgeStyle=orthogonalEdgeStyle;rounded=0;orthogonalLoop=1;jettySize=auto;html=1;exitX=0.5;exitY=1;exitDx=0;exitDy=0;entryX=0.5;entryY=0;entryDx=0;entryDy=0;" edge="1" parent="zLDwhN8EWrta-eR58-o--52" source="zLDwhN8EWrta-eR58-o--29" target="zLDwhN8EWrta-eR58-o--28">
          <mxGeometry relative="1" as="geometry" />
        </mxCell>
        <mxCell id="zLDwhN8EWrta-eR58-o--29" value="&lt;div style=&quot;background-color: rgb(31, 31, 31); font-family: Consolas, &amp;quot;Courier New&amp;quot;, monospace; font-size: 14px; line-height: 19px; white-space: pre;&quot;&gt;&lt;div style=&quot;color: rgb(204, 204, 204); line-height: 19px;&quot;&gt;&lt;span style=&quot;color: #569cd6;&quot;&gt;void&lt;/span&gt; &lt;span style=&quot;color: #4ec9b0;&quot;&gt;InterfaceBlock&lt;/span&gt;::&lt;span style=&quot;color: #dcdcaa;&quot;&gt;startTimerDuration&lt;/span&gt;&lt;/div&gt;&lt;div style=&quot;color: rgb(204, 204, 204); line-height: 19px;&quot;&gt;(&lt;span style=&quot;color: #569cd6;&quot;&gt;unsigned&lt;/span&gt; &lt;span style=&quot;color: #569cd6;&quot;&gt;int&lt;/span&gt; &lt;span style=&quot;color: #9cdcfe;&quot;&gt;interval&lt;/span&gt;)&lt;/div&gt;&lt;/div&gt;" style="rounded=1;whiteSpace=wrap;html=1;strokeColor=#000000;" vertex="1" parent="zLDwhN8EWrta-eR58-o--52">
          <mxGeometry x="529.3800000000001" y="209" width="330" height="70" as="geometry" />
        </mxCell>
        <mxCell id="zLDwhN8EWrta-eR58-o--53" value="" style="group" vertex="1" connectable="0" parent="1">
          <mxGeometry x="415" y="930" width="1020" height="606" as="geometry" />
        </mxCell>
        <mxCell id="zLDwhN8EWrta-eR58-o--32" value="&lt;div style=&quot;color: rgb(204, 204, 204); background-color: rgb(31, 31, 31); font-family: Consolas, &amp;quot;Courier New&amp;quot;, monospace; font-size: 14px; line-height: 19px; white-space: pre;&quot;&gt;&lt;div style=&quot;line-height: 19px;&quot;&gt;&lt;span style=&quot;color: #569cd6;&quot;&gt;void&lt;/span&gt; &lt;span style=&quot;color: #4ec9b0;&quot;&gt;DetailEvent&lt;/span&gt;::&lt;span style=&quot;color: #dcdcaa;&quot;&gt;execTimerDuration&lt;/span&gt;()&lt;/div&gt;&lt;/div&gt;" style="rounded=1;whiteSpace=wrap;html=1;strokeColor=#000000;" vertex="1" parent="zLDwhN8EWrta-eR58-o--53">
          <mxGeometry x="395" y="490" width="300" height="60" as="geometry" />
        </mxCell>
        <mxCell id="zLDwhN8EWrta-eR58-o--33" value="" style="endArrow=classic;html=1;rounded=0;exitX=-0.001;exitY=0.641;exitDx=0;exitDy=0;edgeStyle=orthogonalEdgeStyle;curved=1;entryX=0.999;entryY=0.557;entryDx=0;entryDy=0;entryPerimeter=0;exitPerimeter=0;" edge="1" source="zLDwhN8EWrta-eR58-o--32" target="zLDwhN8EWrta-eR58-o--32" parent="zLDwhN8EWrta-eR58-o--53">
          <mxGeometry width="50" height="50" relative="1" as="geometry">
            <mxPoint x="545" y="605" as="sourcePoint" />
            <mxPoint x="725" y="565" as="targetPoint" />
            <Array as="points">
              <mxPoint x="365" y="529" />
              <mxPoint x="365" y="606" />
              <mxPoint x="725" y="606" />
              <mxPoint x="725" y="523" />
            </Array>
          </mxGeometry>
        </mxCell>
        <mxCell id="zLDwhN8EWrta-eR58-o--41" style="edgeStyle=orthogonalEdgeStyle;rounded=0;orthogonalLoop=1;jettySize=auto;html=1;exitX=0.5;exitY=1;exitDx=0;exitDy=0;entryX=0.5;entryY=0;entryDx=0;entryDy=0;" edge="1" parent="zLDwhN8EWrta-eR58-o--53" source="zLDwhN8EWrta-eR58-o--34" target="zLDwhN8EWrta-eR58-o--32">
          <mxGeometry relative="1" as="geometry" />
        </mxCell>
        <mxCell id="zLDwhN8EWrta-eR58-o--34" value="&lt;div style=&quot;color: rgb(204, 204, 204); background-color: rgb(31, 31, 31); font-family: Consolas, &amp;quot;Courier New&amp;quot;, monospace; font-size: 14px; line-height: 19px; white-space: pre;&quot;&gt;&lt;div style=&quot;line-height: 19px;&quot;&gt;&lt;span style=&quot;color: #569cd6;&quot;&gt;void&lt;/span&gt; &lt;span style=&quot;color: #4ec9b0;&quot;&gt;DetailEvent&lt;/span&gt;::&lt;span style=&quot;color: #dcdcaa;&quot;&gt;addDuration&lt;/span&gt;(&lt;span style=&quot;color: #569cd6;&quot;&gt;const&lt;/span&gt; &lt;span style=&quot;color: #569cd6;&quot;&gt;unsigned&lt;/span&gt; &lt;span style=&quot;color: #569cd6;&quot;&gt;int&amp;amp;&lt;/span&gt; &lt;span style=&quot;color: #9cdcfe;&quot;&gt;beginTime&lt;/span&gt;,&lt;/div&gt;&lt;div style=&quot;line-height: 19px;&quot;&gt; &lt;span style=&quot;color: #569cd6;&quot;&gt;const&lt;/span&gt; &lt;span style=&quot;color: #569cd6;&quot;&gt;unsigned&lt;/span&gt; &lt;span style=&quot;color: #569cd6;&quot;&gt;int&amp;amp;&lt;/span&gt; &lt;span style=&quot;color: #9cdcfe;&quot;&gt;endTime&lt;/span&gt;)&lt;/div&gt;&lt;/div&gt;" style="rounded=1;whiteSpace=wrap;html=1;strokeColor=#000000;" vertex="1" parent="zLDwhN8EWrta-eR58-o--53">
          <mxGeometry x="300" y="360" width="490" height="70" as="geometry" />
        </mxCell>
        <mxCell id="zLDwhN8EWrta-eR58-o--37" style="edgeStyle=orthogonalEdgeStyle;rounded=0;orthogonalLoop=1;jettySize=auto;html=1;exitX=0.5;exitY=1;exitDx=0;exitDy=0;entryX=0.5;entryY=0;entryDx=0;entryDy=0;" edge="1" parent="zLDwhN8EWrta-eR58-o--53" source="zLDwhN8EWrta-eR58-o--35" target="zLDwhN8EWrta-eR58-o--34">
          <mxGeometry relative="1" as="geometry" />
        </mxCell>
        <mxCell id="zLDwhN8EWrta-eR58-o--35" value="&lt;div style=&quot;color: rgb(204, 204, 204); background-color: rgb(31, 31, 31); font-family: Consolas, &amp;quot;Courier New&amp;quot;, monospace; font-size: 14px; line-height: 19px; white-space: pre;&quot;&gt;&lt;div style=&quot;line-height: 19px;&quot;&gt;&lt;div style=&quot;line-height: 19px;&quot;&gt;&lt;span style=&quot;color: #569cd6;&quot;&gt;void&lt;/span&gt; &lt;span style=&quot;color: #4ec9b0;&quot;&gt;DetailEvent&lt;/span&gt;::&lt;span style=&quot;color: #dcdcaa;&quot;&gt;initInforDetailEvent&lt;/span&gt;()&lt;/div&gt;&lt;/div&gt;&lt;/div&gt;" style="rounded=1;whiteSpace=wrap;html=1;strokeColor=#000000;" vertex="1" parent="zLDwhN8EWrta-eR58-o--53">
          <mxGeometry x="375" y="200" width="340" height="70" as="geometry" />
        </mxCell>
        <mxCell id="zLDwhN8EWrta-eR58-o--36" value="&lt;div style=&quot;color: rgb(204, 204, 204); background-color: rgb(31, 31, 31); font-family: Consolas, &amp;quot;Courier New&amp;quot;, monospace; font-size: 14px; line-height: 19px; white-space: pre;&quot;&gt;&lt;div style=&quot;line-height: 19px;&quot;&gt;&lt;div style=&quot;line-height: 19px;&quot;&gt;&lt;div style=&quot;line-height: 19px;&quot;&gt;&lt;span style=&quot;color: #4ec9b0;&quot;&gt;DetailInterface&lt;/span&gt;::&lt;span style=&quot;color: #4ec9b0;&quot;&gt;LoadStatusHandle_t&lt;/span&gt; &lt;span style=&quot;color: #4ec9b0;&quot;&gt;DetailEvent&lt;/span&gt;::&lt;span style=&quot;color: #dcdcaa;&quot;&gt;initDetaiLayout&lt;/span&gt;&lt;/div&gt;&lt;div style=&quot;line-height: 19px;&quot;&gt;(&lt;span style=&quot;color: #4ec9b0;&quot;&gt;ContentItem&lt;/span&gt;&lt;span style=&quot;color: #569cd6;&quot;&gt;*&lt;/span&gt; &lt;span style=&quot;color: #9cdcfe;&quot;&gt;content&lt;/span&gt;, &lt;span style=&quot;color: #4ec9b0;&quot;&gt;DetailModel&lt;/span&gt;&lt;span style=&quot;color: #569cd6;&quot;&gt;*&lt;/span&gt; &lt;span style=&quot;color: #9cdcfe;&quot;&gt;detailModel&lt;/span&gt;, &lt;/div&gt;&lt;div style=&quot;line-height: 19px;&quot;&gt;&lt;span style=&quot;color: #569cd6;&quot;&gt;const&lt;/span&gt; &lt;span style=&quot;color: #569cd6;&quot;&gt;bool&amp;amp;&lt;/span&gt; &lt;span style=&quot;color: #9cdcfe;&quot;&gt;needSkipCheckTime&lt;/span&gt;)&lt;/div&gt;&lt;/div&gt;&lt;/div&gt;&lt;/div&gt;" style="rounded=1;whiteSpace=wrap;html=1;strokeColor=#000000;" vertex="1" parent="zLDwhN8EWrta-eR58-o--53">
          <mxGeometry width="530" height="70" as="geometry" />
        </mxCell>
        <mxCell id="zLDwhN8EWrta-eR58-o--38" value="&lt;div style=&quot;color: rgb(204, 204, 204); background-color: rgb(31, 31, 31); font-family: Consolas, &amp;quot;Courier New&amp;quot;, monospace; font-size: 14px; line-height: 19px; white-space: pre;&quot;&gt;&lt;div style=&quot;line-height: 19px;&quot;&gt;&lt;div style=&quot;line-height: 19px;&quot;&gt;&lt;div style=&quot;line-height: 19px;&quot;&gt;&lt;div style=&quot;line-height: 19px;&quot;&gt;&lt;span style=&quot;color: #4ec9b0;&quot;&gt;InterfacePage&lt;/span&gt;::&lt;span style=&quot;color: #4ec9b0;&quot;&gt;PageUpDateType&lt;/span&gt; &lt;/div&gt;&lt;div style=&quot;line-height: 19px;&quot;&gt;&lt;span style=&quot;color: #4ec9b0;&quot;&gt;DetailEvent&lt;/span&gt;::&lt;span style=&quot;color: #dcdcaa;&quot;&gt;updateContentInPage&lt;/span&gt;(&lt;span style=&quot;color: #569cd6;&quot;&gt;const&lt;/span&gt; &lt;span style=&quot;color: #4ec9b0;&quot;&gt;Json&lt;/span&gt;::&lt;span style=&quot;color: #4ec9b0;&quot;&gt;Value&lt;/span&gt; &lt;span style=&quot;color: #9cdcfe;&quot;&gt;value&lt;/span&gt;)&lt;/div&gt;&lt;/div&gt;&lt;/div&gt;&lt;/div&gt;&lt;/div&gt;" style="rounded=1;whiteSpace=wrap;html=1;strokeColor=#000000;" vertex="1" parent="zLDwhN8EWrta-eR58-o--53">
          <mxGeometry x="550" width="470" height="70" as="geometry" />
        </mxCell>
        <mxCell id="zLDwhN8EWrta-eR58-o--39" value="" style="endArrow=classic;html=1;rounded=0;exitX=0.5;exitY=1;exitDx=0;exitDy=0;entryX=0.5;entryY=0;entryDx=0;entryDy=0;" edge="1" parent="zLDwhN8EWrta-eR58-o--53" source="zLDwhN8EWrta-eR58-o--38" target="zLDwhN8EWrta-eR58-o--35">
          <mxGeometry width="50" height="50" relative="1" as="geometry">
            <mxPoint x="620" y="150" as="sourcePoint" />
            <mxPoint x="670" y="100" as="targetPoint" />
          </mxGeometry>
        </mxCell>
        <mxCell id="zLDwhN8EWrta-eR58-o--40" value="" style="endArrow=classic;html=1;rounded=0;exitX=0.5;exitY=1;exitDx=0;exitDy=0;entryX=0.5;entryY=0;entryDx=0;entryDy=0;" edge="1" parent="zLDwhN8EWrta-eR58-o--53" source="zLDwhN8EWrta-eR58-o--36" target="zLDwhN8EWrta-eR58-o--35">
          <mxGeometry width="50" height="50" relative="1" as="geometry">
            <mxPoint x="330" y="110" as="sourcePoint" />
            <mxPoint x="90" y="240" as="targetPoint" />
          </mxGeometry>
        </mxCell>
        <mxCell id="zLDwhN8EWrta-eR58-o--54" value="" style="group" vertex="1" connectable="0" parent="1">
          <mxGeometry x="1490" y="930" width="880" height="346" as="geometry" />
        </mxCell>
        <mxCell id="zLDwhN8EWrta-eR58-o--42" value="&lt;div style=&quot;color: rgb(204, 204, 204); background-color: rgb(31, 31, 31); font-family: Consolas, &amp;quot;Courier New&amp;quot;, monospace; font-size: 14px; line-height: 19px; white-space: pre;&quot;&gt;&lt;div style=&quot;line-height: 19px;&quot;&gt;&lt;span style=&quot;color: #569cd6;&quot;&gt;void&lt;/span&gt; &lt;span style=&quot;color: #4ec9b0;&quot;&gt;SearchPageView&lt;/span&gt;::&lt;span style=&quot;color: #dcdcaa;&quot;&gt;execTimerDuration&lt;/span&gt;()&lt;/div&gt;&lt;/div&gt;" style="rounded=1;whiteSpace=wrap;html=1;strokeColor=#000000;" vertex="1" parent="zLDwhN8EWrta-eR58-o--54">
          <mxGeometry x="530" y="230" width="330" height="60" as="geometry" />
        </mxCell>
        <mxCell id="zLDwhN8EWrta-eR58-o--43" value="" style="endArrow=classic;html=1;rounded=0;exitX=-0.001;exitY=0.641;exitDx=0;exitDy=0;edgeStyle=orthogonalEdgeStyle;curved=1;entryX=0.999;entryY=0.557;entryDx=0;entryDy=0;entryPerimeter=0;exitPerimeter=0;" edge="1" source="zLDwhN8EWrta-eR58-o--42" target="zLDwhN8EWrta-eR58-o--42" parent="zLDwhN8EWrta-eR58-o--54">
          <mxGeometry width="50" height="50" relative="1" as="geometry">
            <mxPoint x="680" y="345" as="sourcePoint" />
            <mxPoint x="860" y="305" as="targetPoint" />
            <Array as="points">
              <mxPoint x="510" y="268" />
              <mxPoint x="510" y="346" />
              <mxPoint x="880" y="346" />
              <mxPoint x="880" y="263" />
            </Array>
          </mxGeometry>
        </mxCell>
        <mxCell id="zLDwhN8EWrta-eR58-o--44" value="&lt;div style=&quot;color: rgb(204, 204, 204); background-color: rgb(31, 31, 31); font-family: Consolas, &amp;quot;Courier New&amp;quot;, monospace; font-size: 14px; line-height: 19px; white-space: pre;&quot;&gt;&lt;div style=&quot;line-height: 19px;&quot;&gt;&lt;div style=&quot;line-height: 19px;&quot;&gt;&lt;div style=&quot;line-height: 19px;&quot;&gt;&lt;div style=&quot;line-height: 19px;&quot;&gt;&lt;div style=&quot;line-height: 19px;&quot;&gt;&lt;span style=&quot;color: #569cd6;&quot;&gt;bool&lt;/span&gt; &lt;span style=&quot;color: #4ec9b0;&quot;&gt;SearchPageView&lt;/span&gt;::&lt;span style=&quot;color: #dcdcaa;&quot;&gt;drawSearchResultPage&lt;/span&gt;(&lt;span style=&quot;color: #569cd6;&quot;&gt;const&lt;/span&gt; &lt;span style=&quot;color: #569cd6;&quot;&gt;int&amp;amp;&lt;/span&gt; &lt;span style=&quot;color: #9cdcfe;&quot;&gt;posY&lt;/span&gt;)&lt;/div&gt;&lt;/div&gt;&lt;/div&gt;&lt;/div&gt;&lt;/div&gt;&lt;/div&gt;" style="rounded=1;whiteSpace=wrap;html=1;strokeColor=#000000;" vertex="1" parent="zLDwhN8EWrta-eR58-o--54">
          <mxGeometry width="470" height="70" as="geometry" />
        </mxCell>
        <mxCell id="zLDwhN8EWrta-eR58-o--45" value="&lt;div style=&quot;color: rgb(204, 204, 204); background-color: rgb(31, 31, 31); font-family: Consolas, &amp;quot;Courier New&amp;quot;, monospace; font-size: 14px; line-height: 19px; white-space: pre;&quot;&gt;&lt;div style=&quot;line-height: 19px;&quot;&gt;&lt;div style=&quot;line-height: 19px;&quot;&gt;&lt;div style=&quot;line-height: 19px;&quot;&gt;&lt;span style=&quot;color: #569cd6;&quot;&gt;void&lt;/span&gt; &lt;span style=&quot;color: #4ec9b0;&quot;&gt;SearchPageView&lt;/span&gt;::&lt;span style=&quot;color: #dcdcaa;&quot;&gt;updateUI&lt;/span&gt;()&lt;/div&gt;&lt;/div&gt;&lt;/div&gt;&lt;/div&gt;" style="rounded=1;whiteSpace=wrap;html=1;strokeColor=#000000;" vertex="1" parent="zLDwhN8EWrta-eR58-o--54">
          <mxGeometry x="520" width="340" height="70" as="geometry" />
        </mxCell>
        <mxCell id="zLDwhN8EWrta-eR58-o--46" value="&lt;div style=&quot;color: rgb(204, 204, 204); background-color: rgb(31, 31, 31); font-family: Consolas, &amp;quot;Courier New&amp;quot;, monospace; font-size: 14px; line-height: 19px; white-space: pre;&quot;&gt;&lt;div style=&quot;line-height: 19px;&quot;&gt;&lt;div style=&quot;line-height: 19px;&quot;&gt;&lt;span style=&quot;color: #569cd6;&quot;&gt;unsigned&lt;/span&gt; &lt;span style=&quot;color: #569cd6;&quot;&gt;int&lt;/span&gt; &lt;span style=&quot;color: #4ec9b0;&quot;&gt;SearchPageView&lt;/span&gt;::&lt;span style=&quot;color: #dcdcaa;&quot;&gt;addDuration&lt;/span&gt;(&lt;span style=&quot;color: #4ec9b0;&quot;&gt;ItemUI&lt;/span&gt;&lt;span style=&quot;color: #569cd6;&quot;&gt;*&lt;/span&gt; &lt;span style=&quot;color: #9cdcfe;&quot;&gt;item&lt;/span&gt;,&lt;/div&gt;&lt;div style=&quot;line-height: 19px;&quot;&gt; &lt;span style=&quot;color: #4ec9b0;&quot;&gt;ContentItem&lt;/span&gt;&lt;span style=&quot;color: #569cd6;&quot;&gt;*&lt;/span&gt; &lt;span style=&quot;color: #9cdcfe;&quot;&gt;contentItem&lt;/span&gt;, &lt;span style=&quot;color: #569cd6;&quot;&gt;const&lt;/span&gt; &lt;span style=&quot;color: #569cd6;&quot;&gt;int&amp;amp;&lt;/span&gt; &lt;span style=&quot;color: #9cdcfe;&quot;&gt;width&lt;/span&gt;,&lt;/div&gt;&lt;div style=&quot;line-height: 19px;&quot;&gt; &lt;span style=&quot;color: #569cd6;&quot;&gt;const&lt;/span&gt; &lt;span style=&quot;color: #569cd6;&quot;&gt;int&amp;amp;&lt;/span&gt; &lt;span style=&quot;color: #9cdcfe;&quot;&gt;height&lt;/span&gt;)&lt;/div&gt;&lt;/div&gt;&lt;/div&gt;" style="rounded=1;whiteSpace=wrap;html=1;strokeColor=#000000;" vertex="1" parent="zLDwhN8EWrta-eR58-o--54">
          <mxGeometry y="220" width="470" height="80" as="geometry" />
        </mxCell>
        <mxCell id="zLDwhN8EWrta-eR58-o--47" value="" style="endArrow=classic;html=1;rounded=0;exitX=0.5;exitY=1;exitDx=0;exitDy=0;entryX=0.25;entryY=0;entryDx=0;entryDy=0;" edge="1" parent="zLDwhN8EWrta-eR58-o--54" source="zLDwhN8EWrta-eR58-o--44" target="zLDwhN8EWrta-eR58-o--46">
          <mxGeometry width="50" height="50" relative="1" as="geometry">
            <mxPoint x="-130" y="360" as="sourcePoint" />
            <mxPoint x="150" y="490" as="targetPoint" />
          </mxGeometry>
        </mxCell>
        <mxCell id="zLDwhN8EWrta-eR58-o--48" value="" style="endArrow=classic;html=1;rounded=0;exitX=0.5;exitY=1;exitDx=0;exitDy=0;entryX=0.5;entryY=0;entryDx=0;entryDy=0;" edge="1" parent="zLDwhN8EWrta-eR58-o--54" source="zLDwhN8EWrta-eR58-o--45" target="zLDwhN8EWrta-eR58-o--42">
          <mxGeometry width="50" height="50" relative="1" as="geometry">
            <mxPoint x="-130" y="490" as="sourcePoint" />
            <mxPoint x="150" y="620" as="targetPoint" />
          </mxGeometry>
        </mxCell>
        <mxCell id="zLDwhN8EWrta-eR58-o--49" value="" style="endArrow=classic;html=1;rounded=0;exitX=0.5;exitY=1;exitDx=0;exitDy=0;entryX=0.25;entryY=0;entryDx=0;entryDy=0;" edge="1" parent="zLDwhN8EWrta-eR58-o--54" source="zLDwhN8EWrta-eR58-o--44" target="zLDwhN8EWrta-eR58-o--42">
          <mxGeometry width="50" height="50" relative="1" as="geometry">
            <mxPoint x="199" y="570" as="sourcePoint" />
            <mxPoint x="479" y="700" as="targetPoint" />
          </mxGeometry>
        </mxCell>
        <mxCell id="zLDwhN8EWrta-eR58-o--50" value="" style="endArrow=classic;html=1;rounded=0;exitX=0.5;exitY=1;exitDx=0;exitDy=0;entryX=0.5;entryY=0;entryDx=0;entryDy=0;" edge="1" parent="zLDwhN8EWrta-eR58-o--54" source="zLDwhN8EWrta-eR58-o--45" target="zLDwhN8EWrta-eR58-o--46">
          <mxGeometry width="50" height="50" relative="1" as="geometry">
            <mxPoint x="199" y="440" as="sourcePoint" />
            <mxPoint x="479" y="570" as="targetPoint" />
          </mxGeometry>
        </mxCell>
      </root>
    </mxGraphModel>
  </diagram>
</mxfile>
